<svg width="60" height="60" viewBox="0 0 60 60" fill="none" xmlns="http://www.w3.org/2000/svg">
<circle cx="30" cy="30" r="30" fill="#121D23"/>
<g clip-path="url(#clip0_431_21)">
<path d="M22.7112 18.7734C22.0831 18.1453 22.0831 17.1289 22.7112 16.5008C23.0544 16.1576 23.0544 15.6012 22.7112 15.2579C22.368 14.9147 21.8116 14.9147 21.4683 15.2579C20.1564 16.5698 20.1564 18.7044 21.4683 20.0163C22.0964 20.6444 22.0964 21.6608 21.4683 22.2889C21.1251 22.6322 21.1251 23.1886 21.4683 23.5318C21.8115 23.8751 22.368 23.8751 22.7112 23.5318C24.0231 22.2199 24.0231 20.0853 22.7112 18.7734Z" fill="#C9A581"/>
<path d="M27.9846 18.7734C27.3566 18.1453 27.3566 17.1289 27.9846 16.5008C28.3279 16.1576 28.3279 15.6012 27.9846 15.2579C27.6415 14.9147 27.085 14.9147 26.7417 15.2579C25.4298 16.5698 25.4298 18.7044 26.7417 20.0163C27.3698 20.6444 27.3698 21.6608 26.7417 22.2889C26.3985 22.6322 26.3985 23.1886 26.7417 23.5318C27.0849 23.8751 27.6415 23.8751 27.9846 23.5318C29.2966 22.2199 29.2966 20.0853 27.9846 18.7734Z" fill="#C9A581"/>
<path d="M33.2581 18.7734C32.63 18.1453 32.63 17.1289 33.2581 16.5008C33.6013 16.1576 33.6013 15.6012 33.2581 15.2579C32.9149 14.9147 32.3584 14.9147 32.0152 15.2579C30.7033 16.5698 30.7033 18.7044 32.0152 20.0163C32.6433 20.6444 32.6433 21.6608 32.0152 22.2889C31.6719 22.6322 31.6719 23.1886 32.0152 23.5318C32.3584 23.8751 32.915 23.8751 33.2581 23.5318C34.57 22.2199 34.57 20.0853 33.2581 18.7734Z" fill="#C9A581"/>
<path d="M37.0901 37.9099C41.4516 37.9099 45 34.3614 45 29.9999C45 28.5461 43.8172 27.3633 42.3633 27.3633H39.7097C39.7209 27.0711 39.7267 26.778 39.7267 26.4844C39.7267 25.999 39.3331 25.6055 38.8478 25.6055H15.8798C15.3944 25.6055 15.0009 25.999 15.0009 26.4844C15.0009 31.2886 16.5427 36.3284 19.7559 39.7262H15.8798C15.2281 39.7262 14.8016 40.4139 15.0937 40.998C15.6952 42.2009 16.6183 43.2107 17.7636 43.9182C18.9084 44.6255 20.2245 44.9994 21.5696 44.9994H33.1581C35.899 44.9994 38.4069 43.452 39.634 40.998C39.9254 40.415 39.5011 39.7261 38.8478 39.7261H34.9717C35.4924 39.1754 35.9802 38.5682 36.43 37.9097H37.0901V37.9099ZM39.574 29.121H42.3634C42.848 29.121 43.2423 29.5153 43.2423 29.9999C43.2423 33.2599 40.6935 35.9353 37.4841 36.1392C38.5828 34.0131 39.2838 31.6126 39.574 29.121ZM37.186 41.4722C36.1659 42.581 34.7211 43.2417 33.158 43.2417H21.5696C20.0066 43.2417 18.5618 42.581 17.5417 41.4722C18.3161 41.4722 36.7669 41.4722 37.186 41.4722ZM32.3532 39.7262H22.3744C19.1378 37.2776 16.9971 32.5137 16.7774 27.3516L37.9502 27.3633C37.756 31.9245 35.9377 37.0144 32.3532 39.7262Z" fill="#C9A581"/>
</g>
<defs>
<clipPath id="clip0_431_21">
<rect width="30" height="30" fill="white" transform="translate(15 15)"/>
</clipPath>
</defs>
</svg>
